<?xml version="1.0" standalone="no"?>
<!DOCTYPE svg PUBLIC "-//W3C//DTD SVG 20010904//EN"
 "http://www.w3.org/TR/2001/REC-SVG-20010904/DTD/svg10.dtd">
<svg version="1.0" xmlns="http://www.w3.org/2000/svg"
 width="2607.000000pt" height="804.000000pt" viewBox="0 0 2607.000000 804.000000"
 preserveAspectRatio="xMidYMid meet">

<g transform="translate(0.000000,804.000000) scale(0.100000,-0.100000)"
fill="#000000" stroke="none">
<path d="M22000 8024 c-726 -42 -1354 -228 -1834 -545 -193 -126 -321 -232
-512 -423 -519 -519 -841 -1115 -993 -1841 -137 -652 -156 -1481 -50 -2150
113 -711 384 -1335 792 -1825 91 -109 308 -326 417 -417 651 -543 1484 -813
2498 -813 957 1 1733 243 2382 746 148 114 450 417 563 562 467 607 714 1310
788 2242 15 191 15 705 0 900 -83 1072 -409 1877 -1014 2506 -575 598 -1316
942 -2237 1040 -138 14 -658 26 -800 18z m556 -1345 c325 -31 634 -133 889
-292 267 -166 519 -438 673 -727 241 -452 360 -1138 322 -1860 -43 -837 -248
-1414 -650 -1834 -311 -325 -676 -517 -1126 -593 -156 -25 -554 -26 -708 0
-406 69 -737 228 -1036 500 -424 386 -661 921 -742 1672 -21 191 -17 842 5
1025 63 510 181 886 379 1204 149 240 386 475 633 626 232 143 556 249 850
278 129 13 383 14 511 1z"/>
<path d="M11 7888 c0 -7 622 -1752 1382 -3878 l1382 -3865 839 0 839 0 1388
3875 1387 3875 -826 3 c-454 1 -829 -1 -834 -6 -4 -4 -431 -1288 -949 -2852
-518 -1565 -944 -2851 -948 -2858 -4 -6 -445 1269 -980 2835 -536 1567 -978
2856 -983 2866 -8 16 -59 17 -853 17 -670 0 -845 -3 -844 -12z"/>
<path d="M7980 4020 l0 -3880 780 0 780 0 0 3880 0 3880 -780 0 -780 0 0
-3880z"/>
<path d="M11040 4020 l0 -3882 1788 5 c2593 8 2835 20 3272 163 596 196 1036
628 1284 1262 195 500 204 1103 22 1554 -211 522 -621 896 -1204 1098 l-123
43 93 50 c180 96 296 182 442 325 384 379 580 907 537 1450 -20 257 -68 439
-170 647 -214 436 -570 774 -1006 955 -264 109 -518 156 -1050 191 -114 8
-782 13 -2027 16 l-1858 4 0 -3881z m3250 2580 c496 -10 581 -17 730 -56 305
-79 503 -270 582 -559 30 -110 33 -393 5 -500 -26 -98 -97 -239 -157 -312
-144 -177 -391 -297 -680 -333 -145 -17 -740 -29 -1487 -30 l-673 0 0 900 0
900 608 0 c334 0 816 -5 1072 -10z m195 -3090 c233 -11 459 -32 588 -55 334
-58 597 -236 732 -496 149 -288 151 -707 4 -989 -108 -208 -317 -373 -559
-443 -225 -65 -311 -69 -1542 -74 l-1098 -5 0 1036 0 1036 833 0 c457 0 927
-5 1042 -10z"/>
</g>
</svg>
