<?xml version="1.0" standalone="no"?>
<!DOCTYPE svg PUBLIC "-//W3C//DTD SVG 20010904//EN"
 "http://www.w3.org/TR/2001/REC-SVG-20010904/DTD/svg10.dtd">
<svg version="1.0" xmlns="http://www.w3.org/2000/svg"
 width="1779.000000pt" height="1910.000000pt" viewBox="0 0 1779.000000 1910.000000"
 preserveAspectRatio="xMidYMid meet">

<g transform="translate(0.000000,1910.000000) scale(0.100000,-0.100000)"
fill="#000000" stroke="none">
<path d="M15 19083 c8 -21 6781 -18969 6802 -19031 l15 -42 2057 0 2057 0
3413 9533 c1878 5242 3416 9538 3418 9545 4 9 -408 12 -2038 12 l-2044 0
-2335 -7060 c-1284 -3883 -2338 -7060 -2341 -7060 -3 0 -1091 3177 -2419 7060
l-2414 7060 -2089 0 c-1986 0 -2089 -1 -2082 -17z"/>
</g>
</svg>
